<svg width="24" height="24" viewBox="0 0 24 24" fill="none" xmlns="http://www.w3.org/2000/svg">
<g clip-path="url(#clip0_3005_74893)">
<path d="M18.35 15.5517L18.75 16.7417C18.8 16.8917 18.91 17.0017 19.06 17.0617L19.95 17.3917C20.4 17.5617 20.4 18.1917 19.95 18.3517L19.06 18.6817C18.91 18.7317 18.8 18.8517 18.75 19.0017L18.35 20.1917C18.19 20.6617 17.53 20.6617 17.37 20.1917L16.97 19.0017C16.92 18.8517 16.81 18.7417 16.66 18.6817L15.77 18.3517C15.32 18.1817 15.32 17.5517 15.77 17.3917L16.66 17.0617C16.81 17.0117 16.92 16.8917 16.97 16.7417L17.37 15.5517C17.53 15.0817 18.19 15.0817 18.35 15.5517Z" fill="#FF4FF8"/>
<path d="M13.2 4.98969L14.32 8.33969C14.46 8.75969 14.78 9.08969 15.19 9.23969L17.7 10.1797C18.96 10.6497 18.96 12.4297 17.7 12.8997L15.19 13.8397C14.78 13.9897 14.46 14.3297 14.32 14.7397L13.2 18.0897C12.76 19.4197 10.88 19.4197 10.44 18.0897L9.32 14.7397C9.18 14.3197 8.85999 13.9897 8.44999 13.8397L5.94 12.8997C4.68 12.4297 4.68 10.6497 5.94 10.1797L8.44999 9.23969C8.85999 9.08969 9.18 8.74969 9.32 8.33969L10.44 4.98969C10.88 3.65969 12.76 3.65969 13.2 4.98969Z" stroke="#FF4FF8" stroke-width="2" stroke-linecap="round" stroke-linejoin="round"/>
</g>
<defs>
<clipPath id="clip0_3005_74893">
<rect width="16.28" height="17.55" fill="white" transform="translate(4 3)"/>
</clipPath>
</defs>
</svg>
