<svg width="51" height="50" viewBox="0 0 51 50" fill="none" xmlns="http://www.w3.org/2000/svg">
<path fill-rule="evenodd" clip-rule="evenodd" d="M25.5 45C36.5457 45 45.5 36.0457 45.5 25C45.5 13.9543 36.5457 5 25.5 5C14.4543 5 5.5 13.9543 5.5 25C5.5 36.0457 14.4543 45 25.5 45ZM34.7678 21.7678C35.7441 20.7915 35.7441 19.2085 34.7678 18.2322C33.7914 17.2559 32.2085 17.2559 31.2322 18.2322L23 26.4645L19.7678 23.2322C18.7914 22.2559 17.2085 22.2559 16.2322 23.2322C15.2559 24.2085 15.2559 25.7915 16.2322 26.7678L21.2322 31.7678C22.2085 32.7441 23.7914 32.7441 24.7678 31.7678L34.7678 21.7678Z" fill="#10B981"/>
</svg>
