<svg width="24" height="24" viewBox="0 0 24 24" fill="none" xmlns="http://www.w3.org/2000/svg">
<g clip-path="url(#clip0_3005_74889)">
<path d="M8.12 20L8 16H5C3.9 16 3 15.1 3 14V6C3 4.9 3.9 4 5 4H19C20.1 4 21 4.9 21 6V14C21 15.1 20.1 16 19 16H13.5L8.12 20Z" stroke="#FF4F4F" stroke-width="2" stroke-linecap="round" stroke-linejoin="round"/>
<path d="M14.33 9.34935L10.95 7.39935C10.48 7.12935 9.89001 7.46935 9.89001 8.00935V11.9193C9.89001 12.4593 10.48 12.7993 10.95 12.5293L14.33 10.5793C14.8 10.3093 14.8 9.62935 14.33 9.35935V9.34935Z" fill="#FF4F4F"/>
</g>
<defs>
<clipPath id="clip0_3005_74889">
<rect width="20" height="18" fill="white" transform="translate(2 3)"/>
</clipPath>
</defs>
</svg>
