<svg width="24" height="22" viewBox="0 0 24 22" fill="none" xmlns="http://www.w3.org/2000/svg">
<g clip-path="url(#clip0_9429_24305)">
<path d="M7.34419 20.6004L7.20019 15.8004H3.6002C2.2802 15.8004 1.2002 14.7204 1.2002 13.4004V3.80039C1.2002 2.48039 2.2802 1.40039 3.6002 1.40039H20.4002C21.7202 1.40039 22.8002 2.48039 22.8002 3.80039V13.4004C22.8002 14.7204 21.7202 15.8004 20.4002 15.8004H13.8002L7.34419 20.6004Z" stroke="#4F46E5" stroke-width="2" stroke-linecap="round" stroke-linejoin="round"/>
<path d="M14.7958 7.8198L10.7398 5.4798C10.1758 5.1558 9.46777 5.5638 9.46777 6.2118V10.9038C9.46777 11.5518 10.1758 11.9598 10.7398 11.6358L14.7958 9.2958C15.3598 8.9718 15.3598 8.1558 14.7958 7.8318V7.8198Z" fill="#4F46E5"/>
</g>
<defs>
<clipPath id="clip0_9429_24305">
<rect width="24" height="21.6" fill="white" transform="translate(0 0.200195)"/>
</clipPath>
</defs>
</svg>
