<svg width="116" height="116" viewBox="0 0 116 116" fill="none" xmlns="http://www.w3.org/2000/svg">
<path fill-rule="evenodd" clip-rule="evenodd" d="M17.4 28.9984C17.4 22.5919 22.5935 17.3984 29 17.3984H87C93.4065 17.3984 98.6 22.5919 98.6 28.9984V75.3984C98.6 81.8049 93.4065 86.9984 87 86.9984H74.1287L74.8374 89.8331L79.5014 94.4972C81.1602 96.156 81.6564 98.6506 80.7587 100.818C79.861 102.985 77.7461 104.398 75.4002 104.398H40.6002C38.2543 104.398 36.1394 102.985 35.2417 100.818C34.344 98.6506 34.8402 96.156 36.499 94.4972L41.163 89.8331L41.8717 86.9984H29C22.5935 86.9984 17.4 81.8049 17.4 75.3984V28.9984ZM50.8735 69.5984C50.7882 69.5965 50.703 69.5965 50.6181 69.5984H29V28.9984H87V69.5984H65.3823C65.2974 69.5965 65.2122 69.5965 65.1268 69.5984H50.8735Z" fill="#4F46E5"/>
</svg>
