<svg width="24" height="24" viewBox="0 0 24 24" fill="none" xmlns="http://www.w3.org/2000/svg">
<path d="M9.48854 6.5328C9.4362 6.66894 9.32702 6.77545 9.18962 6.82439L3.72184 8.77202C3.27892 8.92978 3.27885 9.55613 3.72173 9.714L9.14268 11.6464C9.30636 11.7047 9.428 11.8439 9.46397 12.0139L11.5107 21.6872C11.6225 22.2159 12.3772 22.2158 12.489 21.6871L14.5341 12.0139C14.5701 11.8439 14.6918 11.7047 14.8555 11.6464L20.2779 9.71402C20.7208 9.55617 20.7207 8.92975 20.2778 8.772L14.8086 6.82441C14.6711 6.77545 14.5619 6.6689 14.5096 6.53268L12.4666 1.21454C12.3023 0.787001 11.6975 0.786927 11.5331 1.21443L9.48854 6.5328Z" fill="#111827"/>
</svg>