<svg width="21" height="20" viewBox="0 0 21 20" fill="none" xmlns="http://www.w3.org/2000/svg">
<path fill-rule="evenodd" clip-rule="evenodd" d="M0.5 10C0.5 15.51 4.97 20 10.53 20H10.54C16.04 20 20.51 15.51 20.51 10C20.51 4.49 16.04 0 10.54 0H10.47C4.97 0 0.5 4.49 0.5 10ZM9.26491 14.6547L9.26996 14.6599H9.25996L9.26491 14.6547ZM9.26491 14.6547L15.29 8.24995C15.67 7.84995 15.65 7.21995 15.25 6.83995C14.85 6.45995 14.22 6.47995 13.84 6.87995L9.24996 11.7599L6.53996 8.93995C6.15996 8.53995 5.52996 8.52995 5.12996 8.90995C4.72996 9.28995 4.71996 9.91995 5.09996 10.3199L9.26491 14.6547Z" fill="#2952E6"/>
</svg>
