<svg width="71" height="71" viewBox="0 0 71 71" fill="none" xmlns="http://www.w3.org/2000/svg">
<path fill-rule="evenodd" clip-rule="evenodd" d="M0 35.4999C0 54.7849 15.645 70.4999 35.105 70.4999H35.14C54.39 70.4999 70.035 54.7849 70.035 35.4999C70.035 16.2149 54.39 0.499908 35.14 0.499908H34.895C15.645 0.499908 0 16.2149 0 35.4999ZM30.6772 51.7913L30.6949 51.8097H30.6599L30.6772 51.7913ZM30.6772 51.7913L51.7649 29.3747C53.0949 27.9747 53.0249 25.7697 51.6249 24.4397C50.2249 23.1097 48.0199 23.1797 46.6899 24.5797L30.6249 41.6597L21.1399 31.7897C19.8099 30.3897 17.6049 30.3547 16.2049 31.6847C14.8049 33.0147 14.7699 35.2197 16.0999 36.6197L30.6772 51.7913Z" fill="#2952E6"/>
</svg>
