<svg width="24" height="24" viewBox="0 0 24 24" fill="none" xmlns="http://www.w3.org/2000/svg">
<g clip-path="url(#clip0_5390_3029)">
<path d="M8 7V15C8 16.1 8.9 17 10 17H16M8 7V5C8 3.9 8.9 3 10 3H14.59C14.86 3 15.11 3.1 15.3 3.29L19.71 7.7C19.9 7.89 20 8.14 20 8.41V15C20 16.1 19.1 17 18 17H16M8 7H6C4.9 7 4 7.9 4 9V19C4 20.1 4.9 21 6 21H14C15.1 21 16 20.1 16 19V17" stroke="#9CA3AF" stroke-width="2" stroke-linecap="round" stroke-linejoin="round"/>
</g>
<defs>
<clipPath id="clip0_5390_3029">
<rect width="18" height="20" fill="white" transform="translate(3 2)"/>
</clipPath>
</defs>
</svg>
