<svg width="24" height="24" viewBox="0 0 24 24" fill="none" xmlns="http://www.w3.org/2000/svg">
<g clip-path="url(#clip0_5390_2957)">
<path d="M8.12 20L8 16H5C3.9 16 3 15.1 3 14V6C3 4.9 3.9 4 5 4H19C20.1 4 21 4.9 21 6V14C21 15.1 20.1 16 19 16H13.5L8.12 20Z" stroke="#9CA3AF" stroke-width="2" stroke-linecap="round" stroke-linejoin="round"/>
<path d="M14.3299 9.34996L10.9499 7.39996C10.4799 7.12996 9.88989 7.46996 9.88989 8.00996V11.92C9.88989 12.46 10.4799 12.8 10.9499 12.53L14.3299 10.58C14.7999 10.31 14.7999 9.62996 14.3299 9.35996V9.34996Z" fill="#9CA3AF"/>
</g>
<defs>
<clipPath id="clip0_5390_2957">
<rect width="20" height="18" fill="white" transform="translate(2 3)"/>
</clipPath>
</defs>
</svg>
