<?xml version="1.0" encoding="UTF-8"?>
<svg xmlns="http://www.w3.org/2000/svg" width="1024" height="1024" viewBox="0 0 1024 1024" role="img" aria-label="Arco OS">
  <rect width="1024" height="1024" rx="230" ry="230" fill="#000000"/>
  <g transform="translate(512 512)">
    <g transform="scale(6.2) translate(-52.5 -37.5)" fill="#ffffff">
      <rect x="29.996" y="30.088" width="15" height="15"/>
      <rect x="45.000" y="45.000" width="15" height="15"/>
      <rect x="45.000" y="60.000" width="15" height="15"/>
      <rect x="60.000" y="30.000" width="15" height="15"/>
      <rect x="74.883" y="15.117" width="15" height="15"/>
      <rect x="74.883" y="45.117" width="15" height="15"/>
      <rect x="89.883" y="60.117" width="15" height="15"/>
      <rect x="45.000" y="15.000" width="15" height="15"/>
      <rect x="45.000" y="-0.000" width="15" height="15"/>
      <rect x="90.000" y="-0.000" width="15" height="15"/>
      <rect x="90.000" y="30.000" width="15" height="15"/>
      <rect x="0.000" y="30.000" width="15" height="15"/>
      <rect x="0.000" y="-0.000" width="15" height="15"/>
      <rect x="0.000" y="60.000" width="15" height="15"/>
      <rect x="15.000" y="15.000" width="15" height="15"/>
      <rect x="14.883" y="45.117" width="15" height="15"/>
    </g>
  </g>
</svg>
