<?xml version="1.0" encoding="UTF-8"?>
<svg xmlns="http://www.w3.org/2000/svg" width="1024" height="1024" viewBox="0 0 1024 1024" role="img" aria-label="Arco OS">
  <rect width="1024" height="1024" rx="230" ry="230" fill="#000000"/>
  <g transform="translate(512 512)">
    <g transform="scale(6.2) translate(-52.5 -37.5)" fill="#ffffff">
      <rect x="0" y="0" width="15" height="15"/>
      <rect x="45" y="0" width="15" height="15"/>
      <rect x="90" y="0" width="15" height="15"/>
      <rect x="15" y="15" width="15" height="15"/>
      <rect x="45" y="15" width="15" height="15"/>
      <rect x="75" y="15" width="15" height="15"/>
      <rect x="0" y="30" width="15" height="15"/>
      <rect x="30" y="30" width="15" height="15"/>
      <rect x="60" y="30" width="15" height="15"/>
      <rect x="90" y="30" width="15" height="15"/>
      <rect x="15" y="45" width="15" height="15"/>
      <rect x="45" y="45" width="15" height="15"/>
      <rect x="75" y="45" width="15" height="15"/>
      <rect x="0" y="60" width="15" height="15"/>
      <rect x="45" y="60" width="15" height="15"/>
      <rect x="90" y="60" width="15" height="15"/>
    </g>
  </g>
</svg>
